<mxfile host="Electron" agent="Mozilla/5.0 (Macintosh; Intel Mac OS X 10_15_7) AppleWebKit/537.36 (KHTML, like Gecko) draw.io/28.2.8 Chrome/140.0.7339.240 Electron/38.4.0 Safari/537.36" version="28.2.8">
  <diagram name="Page-1" id="JdVFn3SvdqNFC67_4Hys">
    <mxGraphModel dx="3199" dy="962" grid="1" gridSize="10" guides="1" tooltips="1" connect="1" arrows="1" fold="1" page="1" pageScale="1" pageWidth="827" pageHeight="1169" math="0" shadow="0">
      <root>
        <mxCell id="0" />
        <mxCell id="1" parent="0" />
        <mxCell id="XbTNeGLUwRyLb6I0RI24-10" value="created_at" style="ellipse;whiteSpace=wrap;html=1;align=center;dashed=1;" vertex="1" parent="1">
          <mxGeometry x="-870" y="580" width="100" height="40" as="geometry" />
        </mxCell>
        <mxCell id="XbTNeGLUwRyLb6I0RI24-11" value="user" style="rounded=1;arcSize=10;whiteSpace=wrap;html=1;align=center;" vertex="1" parent="1">
          <mxGeometry x="-690" y="580" width="100" height="40" as="geometry" />
        </mxCell>
        <mxCell id="XbTNeGLUwRyLb6I0RI24-12" value="phone_number" style="ellipse;shape=doubleEllipse;margin=3;whiteSpace=wrap;html=1;align=center;" vertex="1" parent="1">
          <mxGeometry x="-520" y="500" width="100" height="40" as="geometry" />
        </mxCell>
        <mxCell id="XbTNeGLUwRyLb6I0RI24-19" value="user_id" style="ellipse;whiteSpace=wrap;html=1;align=center;fontStyle=4;" vertex="1" parent="1">
          <mxGeometry x="-800" y="660" width="100" height="40" as="geometry" />
        </mxCell>
        <mxCell id="XbTNeGLUwRyLb6I0RI24-20" value="role" style="ellipse;whiteSpace=wrap;html=1;align=center;" vertex="1" parent="1">
          <mxGeometry x="-640" y="660" width="100" height="40" as="geometry" />
        </mxCell>
        <mxCell id="XbTNeGLUwRyLb6I0RI24-21" value="email" style="ellipse;whiteSpace=wrap;html=1;align=center;" vertex="1" parent="1">
          <mxGeometry x="-520" y="660" width="100" height="40" as="geometry" />
        </mxCell>
        <mxCell id="XbTNeGLUwRyLb6I0RI24-22" value="" style="endArrow=none;html=1;rounded=0;" edge="1" parent="1">
          <mxGeometry relative="1" as="geometry">
            <mxPoint x="-770" y="599.5" as="sourcePoint" />
            <mxPoint x="-690" y="600" as="targetPoint" />
          </mxGeometry>
        </mxCell>
        <mxCell id="XbTNeGLUwRyLb6I0RI24-23" value="" style="endArrow=none;html=1;rounded=0;" edge="1" parent="1">
          <mxGeometry relative="1" as="geometry">
            <mxPoint x="-650" y="580" as="sourcePoint" />
            <mxPoint x="-510" y="530" as="targetPoint" />
          </mxGeometry>
        </mxCell>
        <mxCell id="XbTNeGLUwRyLb6I0RI24-24" value="" style="endArrow=none;html=1;rounded=0;" edge="1" parent="1">
          <mxGeometry relative="1" as="geometry">
            <mxPoint x="-750" y="660" as="sourcePoint" />
            <mxPoint x="-650" y="620" as="targetPoint" />
          </mxGeometry>
        </mxCell>
        <mxCell id="XbTNeGLUwRyLb6I0RI24-25" value="" style="endArrow=none;html=1;rounded=0;entryX=0.62;entryY=-0.025;entryDx=0;entryDy=0;entryPerimeter=0;" edge="1" parent="1" target="XbTNeGLUwRyLb6I0RI24-20">
          <mxGeometry relative="1" as="geometry">
            <mxPoint x="-640" y="620" as="sourcePoint" />
            <mxPoint x="-590" y="665" as="targetPoint" />
          </mxGeometry>
        </mxCell>
        <mxCell id="XbTNeGLUwRyLb6I0RI24-28" value="" style="endArrow=none;html=1;rounded=0;" edge="1" parent="1">
          <mxGeometry relative="1" as="geometry">
            <mxPoint x="-590" y="610" as="sourcePoint" />
            <mxPoint x="-510" y="666" as="targetPoint" />
          </mxGeometry>
        </mxCell>
        <mxCell id="XbTNeGLUwRyLb6I0RI24-29" value="last_name" style="ellipse;whiteSpace=wrap;html=1;align=center;" vertex="1" parent="1">
          <mxGeometry x="-640" y="500" width="100" height="40" as="geometry" />
        </mxCell>
        <mxCell id="XbTNeGLUwRyLb6I0RI24-30" value="first_name" style="ellipse;whiteSpace=wrap;html=1;align=center;" vertex="1" parent="1">
          <mxGeometry x="-810" y="500" width="100" height="40" as="geometry" />
        </mxCell>
        <mxCell id="XbTNeGLUwRyLb6I0RI24-31" value="" style="endArrow=none;html=1;rounded=0;" edge="1" parent="1">
          <mxGeometry relative="1" as="geometry">
            <mxPoint x="-760" y="540" as="sourcePoint" />
            <mxPoint x="-690" y="590" as="targetPoint" />
          </mxGeometry>
        </mxCell>
        <mxCell id="XbTNeGLUwRyLb6I0RI24-32" value="" style="endArrow=none;html=1;rounded=0;entryX=0;entryY=1;entryDx=0;entryDy=0;" edge="1" parent="1" source="XbTNeGLUwRyLb6I0RI24-11" target="XbTNeGLUwRyLb6I0RI24-29">
          <mxGeometry relative="1" as="geometry">
            <mxPoint x="-720" y="580" as="sourcePoint" />
            <mxPoint x="-630" y="540" as="targetPoint" />
          </mxGeometry>
        </mxCell>
        <mxCell id="XbTNeGLUwRyLb6I0RI24-33" value="payment&amp;nbsp;" style="whiteSpace=wrap;html=1;align=center;" vertex="1" parent="1">
          <mxGeometry x="-680" y="1030" width="100" height="40" as="geometry" />
        </mxCell>
        <mxCell id="XbTNeGLUwRyLb6I0RI24-35" value="payment_id" style="ellipse;whiteSpace=wrap;html=1;align=center;fontStyle=4;" vertex="1" parent="1">
          <mxGeometry x="-760" y="950" width="100" height="40" as="geometry" />
        </mxCell>
        <mxCell id="XbTNeGLUwRyLb6I0RI24-37" value="payment_method" style="ellipse;whiteSpace=wrap;html=1;align=center;" vertex="1" parent="1">
          <mxGeometry x="-580" y="950" width="100" height="40" as="geometry" />
        </mxCell>
        <mxCell id="XbTNeGLUwRyLb6I0RI24-38" value="Amount" style="ellipse;whiteSpace=wrap;html=1;align=center;" vertex="1" parent="1">
          <mxGeometry x="-580" y="1110" width="100" height="40" as="geometry" />
        </mxCell>
        <mxCell id="XbTNeGLUwRyLb6I0RI24-39" value="payment_date" style="ellipse;whiteSpace=wrap;html=1;align=center;dashed=1;" vertex="1" parent="1">
          <mxGeometry x="-500" y="1030" width="100" height="40" as="geometry" />
        </mxCell>
        <mxCell id="XbTNeGLUwRyLb6I0RI24-40" value="booking_id" style="ellipse;whiteSpace=wrap;html=1;align=center;" vertex="1" parent="1">
          <mxGeometry x="-760" y="1110" width="100" height="40" as="geometry" />
        </mxCell>
        <mxCell id="XbTNeGLUwRyLb6I0RI24-41" value="" style="endArrow=none;html=1;rounded=0;" edge="1" parent="1">
          <mxGeometry relative="1" as="geometry">
            <mxPoint x="-580" y="1050" as="sourcePoint" />
            <mxPoint x="-500" y="1049.5" as="targetPoint" />
          </mxGeometry>
        </mxCell>
        <mxCell id="XbTNeGLUwRyLb6I0RI24-42" value="" style="endArrow=none;html=1;rounded=0;" edge="1" parent="1">
          <mxGeometry relative="1" as="geometry">
            <mxPoint x="-640" y="1030" as="sourcePoint" />
            <mxPoint x="-530" y="990" as="targetPoint" />
          </mxGeometry>
        </mxCell>
        <mxCell id="XbTNeGLUwRyLb6I0RI24-43" value="" style="endArrow=none;html=1;rounded=0;entryX=0.39;entryY=0.025;entryDx=0;entryDy=0;entryPerimeter=0;" edge="1" parent="1" target="XbTNeGLUwRyLb6I0RI24-38">
          <mxGeometry relative="1" as="geometry">
            <mxPoint x="-595" y="1070" as="sourcePoint" />
            <mxPoint x="-525" y="1120" as="targetPoint" />
          </mxGeometry>
        </mxCell>
        <mxCell id="XbTNeGLUwRyLb6I0RI24-44" value="" style="endArrow=none;html=1;rounded=0;exitX=0.43;exitY=-0.075;exitDx=0;exitDy=0;exitPerimeter=0;" edge="1" parent="1" source="XbTNeGLUwRyLb6I0RI24-40">
          <mxGeometry relative="1" as="geometry">
            <mxPoint x="-740" y="1120" as="sourcePoint" />
            <mxPoint x="-660" y="1070" as="targetPoint" />
          </mxGeometry>
        </mxCell>
        <mxCell id="XbTNeGLUwRyLb6I0RI24-45" value="" style="endArrow=none;html=1;rounded=0;entryX=0.25;entryY=0;entryDx=0;entryDy=0;" edge="1" parent="1" target="XbTNeGLUwRyLb6I0RI24-33">
          <mxGeometry relative="1" as="geometry">
            <mxPoint x="-700" y="990" as="sourcePoint" />
            <mxPoint x="-650" y="1040" as="targetPoint" />
          </mxGeometry>
        </mxCell>
        <mxCell id="XbTNeGLUwRyLb6I0RI24-46" value="booking" style="whiteSpace=wrap;html=1;align=center;" vertex="1" parent="1">
          <mxGeometry x="40" y="1000" width="100" height="40" as="geometry" />
        </mxCell>
        <mxCell id="XbTNeGLUwRyLb6I0RI24-48" value="end_date" style="ellipse;whiteSpace=wrap;html=1;align=center;" vertex="1" parent="1">
          <mxGeometry x="210" y="1120" width="100" height="40" as="geometry" />
        </mxCell>
        <mxCell id="XbTNeGLUwRyLb6I0RI24-49" value="start_date" style="ellipse;whiteSpace=wrap;html=1;align=center;" vertex="1" parent="1">
          <mxGeometry x="60" y="1120" width="100" height="40" as="geometry" />
        </mxCell>
        <mxCell id="XbTNeGLUwRyLb6I0RI24-51" value="host_id" style="ellipse;whiteSpace=wrap;html=1;align=center;" vertex="1" parent="1">
          <mxGeometry x="-120" y="1120" width="100" height="40" as="geometry" />
        </mxCell>
        <mxCell id="XbTNeGLUwRyLb6I0RI24-52" value="created_at" style="ellipse;whiteSpace=wrap;html=1;align=center;dashed=1;" vertex="1" parent="1">
          <mxGeometry x="30" y="920" width="100" height="40" as="geometry" />
        </mxCell>
        <mxCell id="XbTNeGLUwRyLb6I0RI24-54" value="status" style="ellipse;whiteSpace=wrap;html=1;align=center;" vertex="1" parent="1">
          <mxGeometry x="-120" y="1010" width="100" height="40" as="geometry" />
        </mxCell>
        <mxCell id="XbTNeGLUwRyLb6I0RI24-55" value="total_price" style="ellipse;whiteSpace=wrap;html=1;align=center;" vertex="1" parent="1">
          <mxGeometry x="200" y="1000" width="100" height="40" as="geometry" />
        </mxCell>
        <mxCell id="XbTNeGLUwRyLb6I0RI24-56" value="booking_id" style="ellipse;whiteSpace=wrap;html=1;align=center;fontStyle=4;" vertex="1" parent="1">
          <mxGeometry x="-120" y="920" width="100" height="40" as="geometry" />
        </mxCell>
        <mxCell id="XbTNeGLUwRyLb6I0RI24-57" value="user_id" style="ellipse;whiteSpace=wrap;html=1;align=center;" vertex="1" parent="1">
          <mxGeometry x="200" y="920" width="100" height="40" as="geometry" />
        </mxCell>
        <mxCell id="XbTNeGLUwRyLb6I0RI24-58" value="" style="endArrow=none;html=1;rounded=0;entryX=0;entryY=0.75;entryDx=0;entryDy=0;" edge="1" parent="1" target="XbTNeGLUwRyLb6I0RI24-46">
          <mxGeometry relative="1" as="geometry">
            <mxPoint x="-30" y="950" as="sourcePoint" />
            <mxPoint x="20" y="1030" as="targetPoint" />
          </mxGeometry>
        </mxCell>
        <mxCell id="XbTNeGLUwRyLb6I0RI24-59" value="" style="endArrow=none;html=1;rounded=0;entryX=0.57;entryY=0.025;entryDx=0;entryDy=0;entryPerimeter=0;" edge="1" parent="1" target="XbTNeGLUwRyLb6I0RI24-49">
          <mxGeometry relative="1" as="geometry">
            <mxPoint x="80" y="1040" as="sourcePoint" />
            <mxPoint x="120" y="1130" as="targetPoint" />
          </mxGeometry>
        </mxCell>
        <mxCell id="XbTNeGLUwRyLb6I0RI24-60" value="" style="endArrow=none;html=1;rounded=0;entryX=0.4;entryY=0;entryDx=0;entryDy=0;entryPerimeter=0;" edge="1" parent="1" target="XbTNeGLUwRyLb6I0RI24-48">
          <mxGeometry relative="1" as="geometry">
            <mxPoint x="130" y="1040" as="sourcePoint" />
            <mxPoint x="180" y="1130" as="targetPoint" />
          </mxGeometry>
        </mxCell>
        <mxCell id="XbTNeGLUwRyLb6I0RI24-61" value="" style="endArrow=none;html=1;rounded=0;" edge="1" parent="1">
          <mxGeometry relative="1" as="geometry">
            <mxPoint x="-50" y="1120" as="sourcePoint" />
            <mxPoint x="40" y="1040" as="targetPoint" />
          </mxGeometry>
        </mxCell>
        <mxCell id="XbTNeGLUwRyLb6I0RI24-62" value="" style="endArrow=none;html=1;rounded=0;exitX=1;exitY=0.5;exitDx=0;exitDy=0;" edge="1" parent="1" source="XbTNeGLUwRyLb6I0RI24-54">
          <mxGeometry relative="1" as="geometry">
            <mxPoint x="-10" y="1030" as="sourcePoint" />
            <mxPoint x="40" y="1029.5" as="targetPoint" />
          </mxGeometry>
        </mxCell>
        <mxCell id="XbTNeGLUwRyLb6I0RI24-63" value="" style="endArrow=none;html=1;rounded=0;entryX=0.75;entryY=0;entryDx=0;entryDy=0;" edge="1" parent="1" target="XbTNeGLUwRyLb6I0RI24-46">
          <mxGeometry relative="1" as="geometry">
            <mxPoint x="70" y="960" as="sourcePoint" />
            <mxPoint x="130" y="1020" as="targetPoint" />
          </mxGeometry>
        </mxCell>
        <mxCell id="XbTNeGLUwRyLb6I0RI24-64" value="" style="endArrow=none;html=1;rounded=0;entryX=0;entryY=0;entryDx=0;entryDy=0;exitX=1;exitY=1;exitDx=0;exitDy=0;" edge="1" parent="1" source="XbTNeGLUwRyLb6I0RI24-52" target="XbTNeGLUwRyLb6I0RI24-55">
          <mxGeometry relative="1" as="geometry">
            <mxPoint x="140" y="950" as="sourcePoint" />
            <mxPoint x="180" y="1020" as="targetPoint" />
          </mxGeometry>
        </mxCell>
        <mxCell id="XbTNeGLUwRyLb6I0RI24-65" value="" style="endArrow=none;html=1;rounded=0;entryX=1;entryY=0.75;entryDx=0;entryDy=0;" edge="1" parent="1" target="XbTNeGLUwRyLb6I0RI24-46">
          <mxGeometry relative="1" as="geometry">
            <mxPoint x="210" y="950" as="sourcePoint" />
            <mxPoint x="140" y="1040" as="targetPoint" />
          </mxGeometry>
        </mxCell>
        <mxCell id="XbTNeGLUwRyLb6I0RI24-66" value="" style="endArrow=none;html=1;rounded=0;exitX=1;exitY=0.5;exitDx=0;exitDy=0;" edge="1" parent="1" source="XbTNeGLUwRyLb6I0RI24-46">
          <mxGeometry relative="1" as="geometry">
            <mxPoint x="150" y="1020" as="sourcePoint" />
            <mxPoint x="200" y="1019.5" as="targetPoint" />
          </mxGeometry>
        </mxCell>
        <mxCell id="XbTNeGLUwRyLb6I0RI24-67" value="review" style="whiteSpace=wrap;html=1;align=center;" vertex="1" parent="1">
          <mxGeometry x="100" y="465" width="100" height="40" as="geometry" />
        </mxCell>
        <mxCell id="XbTNeGLUwRyLb6I0RI24-68" value="review_id" style="ellipse;whiteSpace=wrap;html=1;align=center;fontStyle=4;" vertex="1" parent="1">
          <mxGeometry y="385" width="100" height="40" as="geometry" />
        </mxCell>
        <mxCell id="XbTNeGLUwRyLb6I0RI24-69" value="property_id" style="ellipse;whiteSpace=wrap;html=1;align=center;" vertex="1" parent="1">
          <mxGeometry x="220" y="385" width="100" height="40" as="geometry" />
        </mxCell>
        <mxCell id="XbTNeGLUwRyLb6I0RI24-70" value="user_id" style="ellipse;whiteSpace=wrap;html=1;align=center;" vertex="1" parent="1">
          <mxGeometry x="260" y="465" width="100" height="40" as="geometry" />
        </mxCell>
        <mxCell id="XbTNeGLUwRyLb6I0RI24-71" value="rating" style="ellipse;whiteSpace=wrap;html=1;align=center;" vertex="1" parent="1">
          <mxGeometry x="-40" y="460" width="100" height="40" as="geometry" />
        </mxCell>
        <mxCell id="XbTNeGLUwRyLb6I0RI24-72" value="comment" style="ellipse;whiteSpace=wrap;html=1;align=center;" vertex="1" parent="1">
          <mxGeometry x="180" y="545" width="100" height="40" as="geometry" />
        </mxCell>
        <mxCell id="XbTNeGLUwRyLb6I0RI24-73" value="created_at" style="ellipse;whiteSpace=wrap;html=1;align=center;dashed=1;" vertex="1" parent="1">
          <mxGeometry x="30" y="545" width="100" height="40" as="geometry" />
        </mxCell>
        <mxCell id="XbTNeGLUwRyLb6I0RI24-74" value="" style="endArrow=none;html=1;rounded=0;exitX=0.5;exitY=0;exitDx=0;exitDy=0;" edge="1" parent="1" source="XbTNeGLUwRyLb6I0RI24-73">
          <mxGeometry relative="1" as="geometry">
            <mxPoint x="50" y="555" as="sourcePoint" />
            <mxPoint x="130" y="505" as="targetPoint" />
          </mxGeometry>
        </mxCell>
        <mxCell id="XbTNeGLUwRyLb6I0RI24-75" value="" style="endArrow=none;html=1;rounded=0;entryX=0.5;entryY=0;entryDx=0;entryDy=0;" edge="1" parent="1" target="XbTNeGLUwRyLb6I0RI24-72">
          <mxGeometry relative="1" as="geometry">
            <mxPoint x="170" y="505" as="sourcePoint" />
            <mxPoint x="220" y="540" as="targetPoint" />
          </mxGeometry>
        </mxCell>
        <mxCell id="XbTNeGLUwRyLb6I0RI24-77" value="" style="endArrow=none;html=1;rounded=0;exitX=0.5;exitY=0;exitDx=0;exitDy=0;" edge="1" parent="1" source="XbTNeGLUwRyLb6I0RI24-67">
          <mxGeometry relative="1" as="geometry">
            <mxPoint x="150" y="460" as="sourcePoint" />
            <mxPoint x="220" y="410" as="targetPoint" />
          </mxGeometry>
        </mxCell>
        <mxCell id="XbTNeGLUwRyLb6I0RI24-78" value="" style="endArrow=none;html=1;rounded=0;" edge="1" parent="1" target="XbTNeGLUwRyLb6I0RI24-67">
          <mxGeometry relative="1" as="geometry">
            <mxPoint x="70" y="425" as="sourcePoint" />
            <mxPoint x="140" y="485" as="targetPoint" />
          </mxGeometry>
        </mxCell>
        <mxCell id="XbTNeGLUwRyLb6I0RI24-79" value="" style="endArrow=none;html=1;rounded=0;" edge="1" parent="1">
          <mxGeometry relative="1" as="geometry">
            <mxPoint x="60" y="480" as="sourcePoint" />
            <mxPoint x="100" y="484.5" as="targetPoint" />
          </mxGeometry>
        </mxCell>
        <mxCell id="XbTNeGLUwRyLb6I0RI24-80" value="" style="endArrow=none;html=1;rounded=0;" edge="1" parent="1">
          <mxGeometry relative="1" as="geometry">
            <mxPoint x="200" y="485" as="sourcePoint" />
            <mxPoint x="260" y="485" as="targetPoint" />
          </mxGeometry>
        </mxCell>
        <mxCell id="XbTNeGLUwRyLb6I0RI24-82" value="Message" style="whiteSpace=wrap;html=1;align=center;" vertex="1" parent="1">
          <mxGeometry x="413.5" y="740" width="100" height="40" as="geometry" />
        </mxCell>
        <mxCell id="XbTNeGLUwRyLb6I0RI24-84" value="message_id" style="ellipse;whiteSpace=wrap;html=1;align=center;fontStyle=4;" vertex="1" parent="1">
          <mxGeometry x="403.5" y="660" width="100" height="40" as="geometry" />
        </mxCell>
        <mxCell id="XbTNeGLUwRyLb6I0RI24-85" value="recipient_id" style="ellipse;whiteSpace=wrap;html=1;align=center;" vertex="1" parent="1">
          <mxGeometry x="573.5" y="740" width="100" height="40" as="geometry" />
        </mxCell>
        <mxCell id="XbTNeGLUwRyLb6I0RI24-86" value="sender_id" style="ellipse;whiteSpace=wrap;html=1;align=center;" vertex="1" parent="1">
          <mxGeometry x="250" y="740" width="100" height="40" as="geometry" />
        </mxCell>
        <mxCell id="XbTNeGLUwRyLb6I0RI24-87" value="message_body" style="ellipse;whiteSpace=wrap;html=1;align=center;" vertex="1" parent="1">
          <mxGeometry x="343.5" y="820" width="100" height="40" as="geometry" />
        </mxCell>
        <mxCell id="XbTNeGLUwRyLb6I0RI24-88" value="send_at" style="ellipse;whiteSpace=wrap;html=1;align=center;" vertex="1" parent="1">
          <mxGeometry x="503.5" y="820" width="100" height="40" as="geometry" />
        </mxCell>
        <mxCell id="XbTNeGLUwRyLb6I0RI24-89" value="" style="endArrow=none;html=1;rounded=0;exitX=0.38;exitY=0;exitDx=0;exitDy=0;exitPerimeter=0;" edge="1" parent="1" source="XbTNeGLUwRyLb6I0RI24-88">
          <mxGeometry relative="1" as="geometry">
            <mxPoint x="553.5" y="830" as="sourcePoint" />
            <mxPoint x="493.5" y="780" as="targetPoint" />
          </mxGeometry>
        </mxCell>
        <mxCell id="XbTNeGLUwRyLb6I0RI24-90" value="" style="endArrow=none;html=1;rounded=0;" edge="1" parent="1" target="XbTNeGLUwRyLb6I0RI24-82">
          <mxGeometry relative="1" as="geometry">
            <mxPoint x="443.5" y="700" as="sourcePoint" />
            <mxPoint x="463.5" y="740" as="targetPoint" />
          </mxGeometry>
        </mxCell>
        <mxCell id="XbTNeGLUwRyLb6I0RI24-91" value="" style="endArrow=none;html=1;rounded=0;" edge="1" parent="1">
          <mxGeometry relative="1" as="geometry">
            <mxPoint x="513.5" y="760" as="sourcePoint" />
            <mxPoint x="573.5" y="759.5" as="targetPoint" />
          </mxGeometry>
        </mxCell>
        <mxCell id="XbTNeGLUwRyLb6I0RI24-92" value="" style="endArrow=none;html=1;rounded=0;" edge="1" parent="1">
          <mxGeometry relative="1" as="geometry">
            <mxPoint x="350" y="759.5" as="sourcePoint" />
            <mxPoint x="413.5" y="760" as="targetPoint" />
          </mxGeometry>
        </mxCell>
        <mxCell id="XbTNeGLUwRyLb6I0RI24-94" value="" style="endArrow=none;html=1;rounded=0;exitX=0.59;exitY=0.025;exitDx=0;exitDy=0;exitPerimeter=0;" edge="1" parent="1" source="XbTNeGLUwRyLb6I0RI24-87">
          <mxGeometry relative="1" as="geometry">
            <mxPoint x="363.5" y="820" as="sourcePoint" />
            <mxPoint x="456.5" y="780.5" as="targetPoint" />
          </mxGeometry>
        </mxCell>
        <mxCell id="XbTNeGLUwRyLb6I0RI24-95" value="Books" style="shape=rhombus;perimeter=rhombusPerimeter;whiteSpace=wrap;html=1;align=center;" vertex="1" parent="1">
          <mxGeometry x="-620" y="340" width="120" height="60" as="geometry" />
        </mxCell>
        <mxCell id="XbTNeGLUwRyLb6I0RI24-99" value="property" style="whiteSpace=wrap;html=1;align=center;" vertex="1" parent="1">
          <mxGeometry x="-287" y="190" width="100" height="40" as="geometry" />
        </mxCell>
        <mxCell id="XbTNeGLUwRyLb6I0RI24-100" value="property_id" style="ellipse;whiteSpace=wrap;html=1;align=center;fontStyle=4;" vertex="1" parent="1">
          <mxGeometry x="-337" y="120" width="100" height="40" as="geometry" />
        </mxCell>
        <mxCell id="XbTNeGLUwRyLb6I0RI24-101" value="location" style="ellipse;whiteSpace=wrap;html=1;align=center;" vertex="1" parent="1">
          <mxGeometry x="-67" y="260" width="100" height="40" as="geometry" />
        </mxCell>
        <mxCell id="XbTNeGLUwRyLb6I0RI24-104" value="description" style="ellipse;whiteSpace=wrap;html=1;align=center;" vertex="1" parent="1">
          <mxGeometry x="-207" y="280" width="100" height="40" as="geometry" />
        </mxCell>
        <mxCell id="XbTNeGLUwRyLb6I0RI24-105" value="host_id" style="ellipse;whiteSpace=wrap;html=1;align=center;" vertex="1" parent="1">
          <mxGeometry x="-127" y="190" width="100" height="40" as="geometry" />
        </mxCell>
        <mxCell id="XbTNeGLUwRyLb6I0RI24-106" value="name" style="ellipse;whiteSpace=wrap;html=1;align=center;" vertex="1" parent="1">
          <mxGeometry x="-457" y="160" width="100" height="40" as="geometry" />
        </mxCell>
        <mxCell id="XbTNeGLUwRyLb6I0RI24-107" value="location" style="ellipse;whiteSpace=wrap;html=1;align=center;" vertex="1" parent="1">
          <mxGeometry x="-367" y="280" width="100" height="40" as="geometry" />
        </mxCell>
        <mxCell id="XbTNeGLUwRyLb6I0RI24-109" value="created_at" style="ellipse;whiteSpace=wrap;html=1;align=center;dashed=1;" vertex="1" parent="1">
          <mxGeometry x="-177" y="120" width="100" height="40" as="geometry" />
        </mxCell>
        <mxCell id="XbTNeGLUwRyLb6I0RI24-110" value="updated_at" style="ellipse;whiteSpace=wrap;html=1;align=center;dashed=1;" vertex="1" parent="1">
          <mxGeometry x="-480" y="240" width="100" height="40" as="geometry" />
        </mxCell>
        <mxCell id="XbTNeGLUwRyLb6I0RI24-111" value="" style="endArrow=none;html=1;rounded=0;entryX=0;entryY=0.5;entryDx=0;entryDy=0;" edge="1" parent="1" target="XbTNeGLUwRyLb6I0RI24-99">
          <mxGeometry relative="1" as="geometry">
            <mxPoint x="-380" y="260" as="sourcePoint" />
            <mxPoint x="-320" y="190" as="targetPoint" />
          </mxGeometry>
        </mxCell>
        <mxCell id="XbTNeGLUwRyLb6I0RI24-112" value="" style="endArrow=none;html=1;rounded=0;entryX=0;entryY=0.25;entryDx=0;entryDy=0;exitX=1;exitY=1;exitDx=0;exitDy=0;" edge="1" parent="1" source="XbTNeGLUwRyLb6I0RI24-106">
          <mxGeometry relative="1" as="geometry">
            <mxPoint x="-357" y="190" as="sourcePoint" />
            <mxPoint x="-287" y="201" as="targetPoint" />
          </mxGeometry>
        </mxCell>
        <mxCell id="XbTNeGLUwRyLb6I0RI24-113" value="" style="endArrow=none;html=1;rounded=0;entryX=0.5;entryY=0;entryDx=0;entryDy=0;exitX=1;exitY=1;exitDx=0;exitDy=0;" edge="1" parent="1" target="XbTNeGLUwRyLb6I0RI24-99">
          <mxGeometry relative="1" as="geometry">
            <mxPoint x="-267" y="160" as="sourcePoint" />
            <mxPoint x="-182" y="167" as="targetPoint" />
          </mxGeometry>
        </mxCell>
        <mxCell id="XbTNeGLUwRyLb6I0RI24-114" value="" style="endArrow=none;html=1;rounded=0;entryX=0;entryY=0.5;entryDx=0;entryDy=0;" edge="1" parent="1">
          <mxGeometry relative="1" as="geometry">
            <mxPoint x="-317" y="280" as="sourcePoint" />
            <mxPoint x="-224" y="230" as="targetPoint" />
          </mxGeometry>
        </mxCell>
        <mxCell id="XbTNeGLUwRyLb6I0RI24-115" value="" style="endArrow=none;html=1;rounded=0;exitX=0.5;exitY=0;exitDx=0;exitDy=0;entryX=0.75;entryY=1;entryDx=0;entryDy=0;" edge="1" parent="1" source="XbTNeGLUwRyLb6I0RI24-104" target="XbTNeGLUwRyLb6I0RI24-99">
          <mxGeometry relative="1" as="geometry">
            <mxPoint x="-177" y="300" as="sourcePoint" />
            <mxPoint x="-197" y="240" as="targetPoint" />
          </mxGeometry>
        </mxCell>
        <mxCell id="XbTNeGLUwRyLb6I0RI24-116" value="" style="endArrow=none;html=1;rounded=0;entryX=0;entryY=1;entryDx=0;entryDy=0;" edge="1" parent="1" target="XbTNeGLUwRyLb6I0RI24-109">
          <mxGeometry relative="1" as="geometry">
            <mxPoint x="-207" y="190" as="sourcePoint" />
            <mxPoint x="-147" y="140" as="targetPoint" />
          </mxGeometry>
        </mxCell>
        <mxCell id="XbTNeGLUwRyLb6I0RI24-117" value="" style="endArrow=none;html=1;rounded=0;exitX=1;exitY=0.5;exitDx=0;exitDy=0;" edge="1" parent="1" source="XbTNeGLUwRyLb6I0RI24-99">
          <mxGeometry relative="1" as="geometry">
            <mxPoint x="-157" y="246" as="sourcePoint" />
            <mxPoint x="-127" y="210" as="targetPoint" />
          </mxGeometry>
        </mxCell>
        <mxCell id="XbTNeGLUwRyLb6I0RI24-118" value="" style="endArrow=none;html=1;rounded=0;entryX=0.05;entryY=0.225;entryDx=0;entryDy=0;entryPerimeter=0;exitX=1;exitY=1;exitDx=0;exitDy=0;" edge="1" parent="1" source="XbTNeGLUwRyLb6I0RI24-99" target="XbTNeGLUwRyLb6I0RI24-101">
          <mxGeometry relative="1" as="geometry">
            <mxPoint x="-167" y="220" as="sourcePoint" />
            <mxPoint x="-97" y="276" as="targetPoint" />
          </mxGeometry>
        </mxCell>
        <mxCell id="XbTNeGLUwRyLb6I0RI24-119" value="" style="endArrow=none;html=1;rounded=0;entryX=0;entryY=1;entryDx=0;entryDy=0;exitX=0.1;exitY=-0.05;exitDx=0;exitDy=0;exitPerimeter=0;" edge="1" parent="1" source="XbTNeGLUwRyLb6I0RI24-11" target="XbTNeGLUwRyLb6I0RI24-95">
          <mxGeometry relative="1" as="geometry">
            <mxPoint x="-680" y="570" as="sourcePoint" />
            <mxPoint x="-560" y="470" as="targetPoint" />
          </mxGeometry>
        </mxCell>
        <mxCell id="XbTNeGLUwRyLb6I0RI24-120" value="" style="endArrow=none;html=1;rounded=0;exitX=0.867;exitY=0.333;exitDx=0;exitDy=0;exitPerimeter=0;entryX=0;entryY=1;entryDx=0;entryDy=0;" edge="1" parent="1" source="XbTNeGLUwRyLb6I0RI24-95" target="XbTNeGLUwRyLb6I0RI24-99">
          <mxGeometry relative="1" as="geometry">
            <mxPoint x="-510" y="360" as="sourcePoint" />
            <mxPoint x="-290" y="230" as="targetPoint" />
          </mxGeometry>
        </mxCell>
        <mxCell id="XbTNeGLUwRyLb6I0RI24-121" value="Relationship" style="shape=rhombus;perimeter=rhombusPerimeter;whiteSpace=wrap;html=1;align=center;" vertex="1" parent="1">
          <mxGeometry x="-710" y="830" width="120" height="60" as="geometry" />
        </mxCell>
        <mxCell id="XbTNeGLUwRyLb6I0RI24-122" value="" style="endArrow=none;html=1;rounded=0;exitX=0.45;exitY=0.067;exitDx=0;exitDy=0;exitPerimeter=0;" edge="1" parent="1" source="XbTNeGLUwRyLb6I0RI24-121">
          <mxGeometry relative="1" as="geometry">
            <mxPoint x="-660" y="760" as="sourcePoint" />
            <mxPoint x="-650" y="620" as="targetPoint" />
          </mxGeometry>
        </mxCell>
        <mxCell id="XbTNeGLUwRyLb6I0RI24-123" value="" style="endArrow=none;html=1;rounded=0;" edge="1" parent="1">
          <mxGeometry relative="1" as="geometry">
            <mxPoint x="-640" y="1030" as="sourcePoint" />
            <mxPoint x="-650" y="890" as="targetPoint" />
          </mxGeometry>
        </mxCell>
        <mxCell id="XbTNeGLUwRyLb6I0RI24-125" value="review/writes review" style="shape=rhombus;perimeter=rhombusPerimeter;whiteSpace=wrap;html=1;align=center;" vertex="1" parent="1">
          <mxGeometry x="-270" y="540" width="140" height="60" as="geometry" />
        </mxCell>
        <mxCell id="XbTNeGLUwRyLb6I0RI24-126" value="" style="endArrow=none;html=1;rounded=0;" edge="1" parent="1" target="XbTNeGLUwRyLb6I0RI24-125">
          <mxGeometry relative="1" as="geometry">
            <mxPoint x="-590" y="599" as="sourcePoint" />
            <mxPoint x="-430" y="599" as="targetPoint" />
          </mxGeometry>
        </mxCell>
        <mxCell id="XbTNeGLUwRyLb6I0RI24-127" value="" style="endArrow=none;html=1;rounded=0;entryX=0;entryY=0.75;entryDx=0;entryDy=0;" edge="1" parent="1" target="XbTNeGLUwRyLb6I0RI24-67">
          <mxGeometry relative="1" as="geometry">
            <mxPoint x="-150" y="560" as="sourcePoint" />
            <mxPoint x="90" y="500" as="targetPoint" />
          </mxGeometry>
        </mxCell>
        <mxCell id="XbTNeGLUwRyLb6I0RI24-128" value="" style="endArrow=none;html=1;rounded=0;" edge="1" parent="1" target="XbTNeGLUwRyLb6I0RI24-129">
          <mxGeometry relative="1" as="geometry">
            <mxPoint x="-590" y="600" as="sourcePoint" />
            <mxPoint x="-60" y="740" as="targetPoint" />
          </mxGeometry>
        </mxCell>
        <mxCell id="XbTNeGLUwRyLb6I0RI24-129" value="sends/receives message" style="shape=rhombus;perimeter=rhombusPerimeter;whiteSpace=wrap;html=1;align=center;" vertex="1" parent="1">
          <mxGeometry x="-177" y="680" width="120" height="90" as="geometry" />
        </mxCell>
        <mxCell id="XbTNeGLUwRyLb6I0RI24-130" value="" style="endArrow=none;html=1;rounded=0;exitX=0.917;exitY=0.578;exitDx=0;exitDy=0;exitPerimeter=0;" edge="1" parent="1" source="XbTNeGLUwRyLb6I0RI24-129">
          <mxGeometry relative="1" as="geometry">
            <mxPoint x="-60" y="730" as="sourcePoint" />
            <mxPoint x="230" y="680" as="targetPoint" />
          </mxGeometry>
        </mxCell>
        <mxCell id="XbTNeGLUwRyLb6I0RI24-131" value="" style="endArrow=none;html=1;rounded=0;" edge="1" parent="1">
          <mxGeometry relative="1" as="geometry">
            <mxPoint x="230" y="680" as="sourcePoint" />
            <mxPoint x="410" y="740" as="targetPoint" />
          </mxGeometry>
        </mxCell>
        <mxCell id="XbTNeGLUwRyLb6I0RI24-132" value="confirms booking" style="shape=rhombus;perimeter=rhombusPerimeter;whiteSpace=wrap;html=1;align=center;" vertex="1" parent="1">
          <mxGeometry x="-327" y="950" width="120" height="60" as="geometry" />
        </mxCell>
        <mxCell id="XbTNeGLUwRyLb6I0RI24-133" value="" style="endArrow=none;html=1;rounded=0;" edge="1" parent="1" target="XbTNeGLUwRyLb6I0RI24-132">
          <mxGeometry relative="1" as="geometry">
            <mxPoint x="-580" y="1039" as="sourcePoint" />
            <mxPoint x="-420" y="1039" as="targetPoint" />
          </mxGeometry>
        </mxCell>
        <mxCell id="XbTNeGLUwRyLb6I0RI24-134" value="" style="endArrow=none;html=1;rounded=0;entryX=0;entryY=0.5;entryDx=0;entryDy=0;" edge="1" parent="1" target="XbTNeGLUwRyLb6I0RI24-46">
          <mxGeometry relative="1" as="geometry">
            <mxPoint x="-210" y="980" as="sourcePoint" />
            <mxPoint x="-50" y="1000" as="targetPoint" />
          </mxGeometry>
        </mxCell>
        <mxCell id="XbTNeGLUwRyLb6I0RI24-135" value="user sentiment" style="shape=rhombus;perimeter=rhombusPerimeter;whiteSpace=wrap;html=1;align=center;" vertex="1" parent="1">
          <mxGeometry x="110" y="230" width="120" height="60" as="geometry" />
        </mxCell>
        <mxCell id="XbTNeGLUwRyLb6I0RI24-136" value="" style="endArrow=none;html=1;rounded=0;exitX=1;exitY=0.75;exitDx=0;exitDy=0;" edge="1" parent="1" source="XbTNeGLUwRyLb6I0RI24-99">
          <mxGeometry relative="1" as="geometry">
            <mxPoint x="-50" y="259.5" as="sourcePoint" />
            <mxPoint x="110" y="259.5" as="targetPoint" />
          </mxGeometry>
        </mxCell>
        <mxCell id="XbTNeGLUwRyLb6I0RI24-137" value="" style="endArrow=none;html=1;rounded=0;exitX=0.5;exitY=1;exitDx=0;exitDy=0;entryX=0.41;entryY=0.025;entryDx=0;entryDy=0;entryPerimeter=0;" edge="1" parent="1" source="XbTNeGLUwRyLb6I0RI24-135" target="XbTNeGLUwRyLb6I0RI24-67">
          <mxGeometry relative="1" as="geometry">
            <mxPoint x="180" y="290" as="sourcePoint" />
            <mxPoint x="142" y="460" as="targetPoint" />
          </mxGeometry>
        </mxCell>
        <mxCell id="XbTNeGLUwRyLb6I0RI24-138" value="creates booking" style="shape=rhombus;perimeter=rhombusPerimeter;whiteSpace=wrap;html=1;align=center;" vertex="1" parent="1">
          <mxGeometry x="-337" y="780" width="120" height="60" as="geometry" />
        </mxCell>
        <mxCell id="XbTNeGLUwRyLb6I0RI24-139" value="" style="endArrow=none;html=1;rounded=0;" edge="1" parent="1">
          <mxGeometry relative="1" as="geometry">
            <mxPoint x="-320" y="630" as="sourcePoint" />
            <mxPoint x="-320" y="800" as="targetPoint" />
          </mxGeometry>
        </mxCell>
        <mxCell id="XbTNeGLUwRyLb6I0RI24-140" value="" style="endArrow=none;html=1;rounded=0;exitX=1;exitY=0.5;exitDx=0;exitDy=0;" edge="1" parent="1" source="XbTNeGLUwRyLb6I0RI24-11">
          <mxGeometry relative="1" as="geometry">
            <mxPoint x="-480" y="630" as="sourcePoint" />
            <mxPoint x="-320" y="630" as="targetPoint" />
          </mxGeometry>
        </mxCell>
        <mxCell id="XbTNeGLUwRyLb6I0RI24-141" value="" style="endArrow=none;html=1;rounded=0;" edge="1" parent="1">
          <mxGeometry relative="1" as="geometry">
            <mxPoint x="-217" y="809.5" as="sourcePoint" />
            <mxPoint x="-57" y="809.5" as="targetPoint" />
          </mxGeometry>
        </mxCell>
        <mxCell id="XbTNeGLUwRyLb6I0RI24-142" value="" style="endArrow=none;html=1;rounded=0;entryX=0;entryY=0;entryDx=0;entryDy=0;" edge="1" parent="1" target="XbTNeGLUwRyLb6I0RI24-46">
          <mxGeometry relative="1" as="geometry">
            <mxPoint x="-60" y="810" as="sourcePoint" />
            <mxPoint x="63" y="840" as="targetPoint" />
          </mxGeometry>
        </mxCell>
      </root>
    </mxGraphModel>
  </diagram>
</mxfile>
